# xmcd
#
# Track frame offsets:
#	150
#	15283
#	35351
#	61974
#	78346
#	85166
#	104384
#	122489
#	143842
#	164731
#	183143
#	202764
#	217981
#	242545
#
# Disc length: 3598 seconds
#
# Revision: 0
# Processed by: cddbd v1.5.1PL0 Copyright (c) Steve Scherf et al.
# Submitted via: EasyCDDAExtractor 8.0.2.1
#
DISCID=a80e0c0e
DTITLE=Atomic Hooligan - You Are Here
DYEAR=2005
DGENRE=Dance
TTITLE0=Seven 10 split
TTITLE1=Head
TTITLE2=Shine a light
TTITLE3=Who stole monkey's clothes?
TTITLE4=The Birch
TTITLE5=Wait 'til you're sleeping
TTITLE6=Spitball
TTITLE7=Pump Friction
TTITLE8=Dreaming
TTITLE9=Steal the sun
TTITLE10=Twelve hundred miles
TTITLE11=Superstar Junkie
TTITLE12=Just one more
TTITLE13=You Are Here
EXTD=
EXTT0=
EXTT1=
EXTT2=
EXTT3=
EXTT4=
EXTT5=
EXTT6=
EXTT7=
EXTT8=
EXTT9=
EXTT10=
EXTT11=
EXTT12=
EXTT13=
PLAYORDER=
